<svg width="112" height="41" viewBox="0 0 112 41" fill="none" xmlns="http://www.w3.org/2000/svg">
<g clip-path="url(#clip0_1_6)">
<mask id="mask0_1_6" style="mask-type:luminance" maskUnits="userSpaceOnUse" x="0" y="0" width="35" height="41">
<path d="M34.5546 0.5H0.00762939V40.39H34.5546V0.5Z" fill="white"/>
</mask>
<g mask="url(#mask0_1_6)">
<path d="M34.5546 10.4908V30.4358L30.6754 32.6682L25.8812 27.8375C27.6013 25.8613 28.626 23.2629 28.626 20.445C28.626 14.187 23.5391 9.10014 17.2811 9.10014C11.0231 9.10014 5.93624 14.187 5.93624 20.445C5.93624 26.703 11.0231 31.7899 17.2811 31.7899C19.2207 31.7899 21.0139 31.3141 22.6242 30.4724L26.9791 34.8274L25.9544 35.4129L17.2811 40.39L8.64436 35.4129L0.00762939 30.4358V10.4908L8.64436 5.5137L17.2811 0.5L25.9178 5.4771L34.5546 10.4908Z" fill="url(#paint0_linear_1_6)"/>
<path fill-rule="evenodd" clip-rule="evenodd" d="M26.9427 34.7908L25.918 35.3763L25.552 35.5959L22.1486 32.1924C20.5749 33.0341 18.7451 33.5099 16.8055 33.5099C10.5475 33.5099 5.46063 28.423 5.46063 22.165C5.46063 20.811 5.71681 19.4935 6.15596 18.2858C6.00958 18.9811 5.93638 19.7131 5.93638 20.445C5.93638 26.703 11.0233 31.7899 17.2812 31.7899C19.2209 31.7899 21.0141 31.3141 22.6243 30.4724L26.9427 34.7908Z" fill="#323232"/>
<path d="M24.4905 20.445C24.4905 24.434 21.2701 27.6545 17.2811 27.6545C13.3287 27.6545 10.0716 24.434 10.0716 20.445C10.0716 16.456 13.2921 13.2355 17.2811 13.2355C18.0862 13.2355 18.8181 13.3819 19.55 13.6015C18.379 14.0406 17.5372 15.1751 17.5372 16.5292C17.5372 18.2492 18.9279 19.6765 20.6845 19.6765C22.185 19.6765 23.4293 18.6518 23.722 17.2611C24.1978 18.2126 24.4905 19.3105 24.4905 20.445Z" fill="url(#paint1_linear_1_6)"/>
</g>
<mask id="mask1_1_6" style="mask-type:luminance" maskUnits="userSpaceOnUse" x="40" y="11" width="72" height="19">
<path d="M111.992 11.8449H40.6296V29.4111H111.992V11.8449Z" fill="white"/>
</mask>
<g mask="url(#mask1_1_6)">
<path d="M56.2375 29.1408H51.9067L51.4559 26.7086L51.1851 25.7177L48.1176 25.6276L45.5013 25.7177L45.3209 26.4383L44.87 29.1408H40.6296L46.1329 12.1151H51.2754L56.2375 29.1408ZM50.3734 22.4747L48.7492 15.9887H48.4788L46.4938 22.4747L48.4788 22.5647L50.3734 22.4747Z" fill="url(#paint2_linear_1_6)"/>
<path d="M62.643 23.6458L62.8234 29.1408H58.493L58.7634 24.0962L58.493 12.1151H62.9135L62.643 23.6458Z" fill="url(#paint3_linear_1_6)"/>
<path d="M80.9573 12.7457L80.2352 16.349L79.6039 16.6193C78.9723 16.1689 78.2506 15.8085 77.619 15.6284C76.9877 15.3581 76.356 15.268 75.9048 15.268C75.3635 15.268 74.8223 15.4482 74.5515 15.7184C74.281 15.9887 74.0102 16.349 74.0102 16.7094C74.0102 17.1598 74.1906 17.5201 74.6418 17.7904C75.0931 18.0606 75.7244 18.4209 76.7169 18.8714C77.7093 19.3218 78.5211 19.7722 79.1527 20.1325C79.7844 20.4929 80.3256 21.0334 80.7769 21.664C81.2277 22.2945 81.4081 23.1053 81.4081 24.0061C81.4081 24.997 81.1377 25.988 80.5964 26.7987C80.0548 27.6094 79.2431 28.24 78.2506 28.7805C77.2581 29.2309 76.0852 29.5012 74.7322 29.5012C72.9277 29.5012 71.2135 29.1408 69.4093 28.4202L70.0406 24.6367L70.4918 24.3664C71.2135 24.997 72.0256 25.4474 72.9277 25.8078C73.8298 26.1681 74.5514 26.3483 75.1831 26.3483C75.8148 26.3483 76.356 26.1681 76.7169 25.8979C77.0777 25.6276 77.2581 25.2673 77.2581 24.8169C77.2581 24.3664 77.0777 23.916 76.6268 23.6458C76.1756 23.2854 75.5439 22.9251 74.5515 22.5648C73.5593 22.1143 72.8376 21.754 72.206 21.3036C71.5743 20.9433 71.0331 20.4028 70.6722 19.7722C70.3114 19.1416 70.0406 18.3309 70.0406 17.43C70.0406 16.349 70.3114 15.4482 70.8527 14.6375C71.3939 13.8267 72.206 13.106 73.1985 12.6556C74.1906 12.2052 75.0027 11.8449 76.356 11.8449C77.7994 11.8449 79.3331 12.1151 80.9573 12.7457Z" fill="url(#paint4_linear_1_6)"/>
<path d="M95.2115 25.6276L95.4824 25.9879L95.2115 29.1408H83.9344L84.2052 24.0962L83.9344 12.1151H95.3923L95.6628 12.4754L95.3923 15.6283L91.1519 15.4482H88.2648L88.1748 18.8713H90.9715L93.7682 18.7813L94.039 19.1416L93.7682 22.2945L90.7007 22.2044H88.1748V23.6458L88.2648 25.7177H91.0615L95.2115 25.6276Z" fill="url(#paint5_linear_1_6)"/>
<path d="M110.008 14.0069C111.361 15.4482 111.992 17.5201 111.992 20.2226C111.992 23.1053 111.271 25.4474 109.827 26.9788C108.384 28.6003 106.309 29.4111 103.692 29.4111C101.257 29.4111 99.4523 28.6904 98.099 27.159C96.7457 25.7177 96.114 23.5557 96.114 20.8532C96.114 17.9705 96.8357 15.7184 98.2794 14.187C99.7228 12.6556 101.798 11.8449 104.414 11.8449C106.85 11.8449 108.745 12.5655 110.008 14.0069ZM102.069 15.7184C101.617 16.0788 101.257 16.5292 100.986 17.3399C100.715 18.0606 100.625 19.0515 100.625 20.3127C100.625 21.8441 100.715 23.0152 100.986 23.826C101.257 24.6367 101.617 25.2673 102.069 25.6276C102.61 25.988 103.242 26.1681 104.144 26.1681C104.956 26.1681 105.677 25.988 106.128 25.7177C106.579 25.3574 106.94 24.8169 107.211 24.0962C107.482 23.3755 107.572 22.3846 107.572 21.0334C107.572 19.592 107.482 18.4209 107.211 17.5201C106.94 16.7094 106.579 16.0788 106.128 15.7184C105.587 15.4482 104.956 15.268 104.053 15.268C103.242 15.268 102.519 15.4482 102.069 15.7184Z" fill="url(#paint6_linear_1_6)"/>
</g>
</g>
<defs>
<linearGradient id="paint0_linear_1_6" x1="17.1626" y1="46.4529" x2="17.406" y2="-6.16386" gradientUnits="userSpaceOnUse">
<stop offset="0.0204411" stop-color="#303030"/>
<stop offset="0.90068" stop-color="#454545"/>
</linearGradient>
<linearGradient id="paint1_linear_1_6" x1="17.1626" y1="46.4383" x2="17.406" y2="-6.15292" gradientUnits="userSpaceOnUse">
<stop stop-color="#343434"/>
<stop offset="1" stop-color="#303030"/>
</linearGradient>
<linearGradient id="paint2_linear_1_6" x1="48.4334" y1="12.1151" x2="48.4334" y2="29.1408" gradientUnits="userSpaceOnUse">
<stop stop-color="#454545"/>
<stop offset="1" stop-color="#343434"/>
</linearGradient>
<linearGradient id="paint3_linear_1_6" x1="60.703" y1="12.1151" x2="60.703" y2="29.1408" gradientUnits="userSpaceOnUse">
<stop stop-color="#454545"/>
<stop offset="1" stop-color="#343434"/>
</linearGradient>
<linearGradient id="paint4_linear_1_6" x1="75.4085" y1="11.8449" x2="75.4085" y2="29.5012" gradientUnits="userSpaceOnUse">
<stop stop-color="#454545"/>
<stop offset="1" stop-color="#343434"/>
</linearGradient>
<linearGradient id="paint5_linear_1_6" x1="89.7986" y1="12.1151" x2="89.7986" y2="29.1408" gradientUnits="userSpaceOnUse">
<stop stop-color="#454545"/>
<stop offset="1" stop-color="#343434"/>
</linearGradient>
<linearGradient id="paint6_linear_1_6" x1="104.053" y1="11.8449" x2="104.053" y2="29.4111" gradientUnits="userSpaceOnUse">
<stop stop-color="#454545"/>
<stop offset="1" stop-color="#343434"/>
</linearGradient>
<clipPath id="clip0_1_6">
<rect width="111.985" height="39.89" fill="white" transform="translate(0.00762939 0.5)"/>
</clipPath>
</defs>
</svg>
