<svg width="35" height="41" viewBox="0 0 35 41" fill="none" xmlns="http://www.w3.org/2000/svg">
<mask id="mask0_1_13" style="mask-type:luminance" maskUnits="userSpaceOnUse" x="0" y="0" width="35" height="41">
<path d="M34.5546 0.5H0.00762939V40.39H34.5546V0.5Z" fill="white"/>
</mask>
<g mask="url(#mask0_1_13)">
<path d="M34.5546 10.4908V30.4358L30.6754 32.6682L25.8812 27.8375C27.6013 25.8613 28.626 23.2629 28.626 20.445C28.626 14.187 23.5391 9.10014 17.2811 9.10014C11.0231 9.10014 5.93624 14.187 5.93624 20.445C5.93624 26.703 11.0231 31.7899 17.2811 31.7899C19.2207 31.7899 21.0139 31.3141 22.6242 30.4724L26.9791 34.8274L25.9544 35.4129L17.2811 40.39L8.64436 35.4129L0.00762939 30.4358V10.4908L8.64436 5.5137L17.2811 0.5L25.9178 5.4771L34.5546 10.4908Z" fill="url(#paint0_linear_1_13)"/>
<path fill-rule="evenodd" clip-rule="evenodd" d="M26.9427 34.7908L25.918 35.3763L25.552 35.5959L22.1486 32.1924C20.5749 33.0341 18.7451 33.5099 16.8055 33.5099C10.5475 33.5099 5.46063 28.423 5.46063 22.165C5.46063 20.811 5.71681 19.4935 6.15596 18.2858C6.00958 18.9811 5.93638 19.7131 5.93638 20.445C5.93638 26.703 11.0233 31.7899 17.2812 31.7899C19.2209 31.7899 21.0141 31.3141 22.6243 30.4724L26.9427 34.7908Z" fill="#323232"/>
<path d="M24.4905 20.445C24.4905 24.434 21.2701 27.6545 17.2811 27.6545C13.3287 27.6545 10.0716 24.434 10.0716 20.445C10.0716 16.456 13.2921 13.2355 17.2811 13.2355C18.0862 13.2355 18.8181 13.3819 19.55 13.6015C18.379 14.0406 17.5372 15.1751 17.5372 16.5292C17.5372 18.2492 18.9279 19.6765 20.6845 19.6765C22.185 19.6765 23.4293 18.6518 23.722 17.2611C24.1978 18.2126 24.4905 19.3105 24.4905 20.445Z" fill="url(#paint1_linear_1_13)"/>
</g>
<defs>
<linearGradient id="paint0_linear_1_13" x1="17.1626" y1="46.4529" x2="17.406" y2="-6.16386" gradientUnits="userSpaceOnUse">
<stop offset="0.0204411" stop-color="#303030"/>
<stop offset="0.90068" stop-color="#454545"/>
</linearGradient>
<linearGradient id="paint1_linear_1_13" x1="17.1626" y1="46.4383" x2="17.406" y2="-6.15292" gradientUnits="userSpaceOnUse">
<stop stop-color="#343434"/>
<stop offset="1" stop-color="#303030"/>
</linearGradient>
</defs>
</svg>
