<svg width="30" height="31" viewBox="0 0 30 31" fill="none" xmlns="http://www.w3.org/2000/svg">
<g clip-path="url(#clip0_1_684)">
<path fill-rule="evenodd" clip-rule="evenodd" d="M15 30.5C23.2842 30.5 30 23.7842 30 15.5C30 7.2158 23.2842 0.5 15 0.5C6.7158 0.5 0 7.2158 0 15.5C0 23.7842 6.7158 30.5 15 30.5ZM21.5931 10.0832C21.7089 8.7692 20.3211 9.3104 20.3211 9.3104C19.2966 9.7346 18.24 10.1654 17.172 10.601C13.86 11.9519 10.4388 13.3475 7.5243 14.7212C5.9439 15.3008 6.8691 15.8804 6.8691 15.8804L9.3744 16.6535C10.5309 17.0015 11.1474 16.6148 11.1474 16.6148L16.5438 12.9434C18.471 11.6294 18.0084 12.7115 17.5458 13.1753L13.4988 17.0399C12.882 17.5811 13.1904 18.0449 13.4601 18.2768C14.2251 18.9515 16.1061 20.186 16.9272 20.7248C17.1408 20.8649 17.2827 20.9582 17.3148 20.9822C17.5074 21.1367 18.5481 21.8324 19.242 21.6779C19.9359 21.5231 20.013 20.6342 20.013 20.6342L20.9379 14.5664C21.0765 13.5131 21.2358 12.5006 21.363 11.6918C21.483 10.928 21.5745 10.3463 21.5931 10.0832Z" fill="#232323"/>
</g>
<defs>
<clipPath id="clip0_1_684">
<rect width="30" height="30" fill="white" transform="translate(0 0.5)"/>
</clipPath>
</defs>
</svg>
