<svg width="38" height="39" viewBox="0 0 38 39" fill="none" xmlns="http://www.w3.org/2000/svg">
<g clip-path="url(#clip0_1_38)">
<g clip-path="url(#clip1_1_38)">
<g clip-path="url(#clip2_1_38)">
<mask id="mask0_1_38" style="mask-type:luminance" maskUnits="userSpaceOnUse" x="0" y="0" width="38" height="39">
<path d="M38 0.5H0V38.5H38V0.5Z" fill="white"/>
</mask>
<g mask="url(#mask0_1_38)">
<path d="M34.2222 4.5H2.44446V35.8333H34.2222V4.5Z" fill="white"/>
<path d="M26.6282 13.9619L16.9921 21.8383L16.5387 22.2096C16.4391 22.2886 16.374 22.4032 16.3573 22.5292L16.2558 23.3669L15.9773 25.7202C15.9799 25.7489 15.971 25.7773 15.9526 25.7996C15.9341 25.8216 15.9077 25.8353 15.8791 25.838C15.8504 25.8407 15.822 25.8316 15.7999 25.8133C15.7778 25.7949 15.764 25.7684 15.7614 25.7398L14.9777 23.3864L14.168 20.979C14.1335 20.8711 14.1379 20.7545 14.1805 20.6495C14.2231 20.5446 14.3012 20.4579 14.4012 20.4046L24.428 14.6571L26.3151 13.5776C26.5893 13.4178 26.87 13.7633 26.6282 13.9619Z" fill="url(#paint0_linear_1_38)"/>
<path d="M32.8182 0.5H5.18182C3.80751 0.5 2.48949 1.04594 1.51772 2.01772C0.54594 2.98949 0 4.30751 0 5.68182V33.3182C0 34.6924 0.54594 36.0104 1.51772 36.9822C2.48949 37.954 3.80751 38.5 5.18182 38.5H32.8182C34.1924 38.5 35.5104 37.954 36.4822 36.9822C37.454 36.0104 38 34.6924 38 33.3182V5.68182C38 4.30751 37.454 2.98949 36.4822 2.01772C35.5104 1.04594 34.1924 0.5 32.8182 0.5ZM30.8513 11.4984L27.142 27.888C26.9671 28.6567 25.9911 29.0042 25.3067 28.5358L19.706 24.7358L16.8539 27.4324C16.7376 27.5416 16.5964 27.6207 16.4426 27.6629C16.2888 27.7051 16.127 27.7091 15.9713 27.6747C15.8156 27.6402 15.6706 27.5684 15.549 27.4651C15.4274 27.362 15.3328 27.2307 15.2734 27.0827L14.2435 24.06L13.2136 21.0373L7.69284 19.5259C7.53849 19.4922 7.39958 19.4084 7.29773 19.2877C7.19589 19.1669 7.1368 19.0158 7.12964 18.858C7.12251 18.7002 7.16771 18.5444 7.25824 18.4149C7.34878 18.2854 7.47953 18.1894 7.63022 18.1419L28.9578 10.4577L29.3507 10.3174C30.1776 10.0281 31.0327 10.6974 30.8513 11.4984Z" fill="url(#paint1_linear_1_38)"/>
</g>
</g>
</g>
</g>
<defs>
<linearGradient id="paint0_linear_1_38" x1="20.4326" y1="13.5366" x2="20.4326" y2="25.8384" gradientUnits="userSpaceOnUse">
<stop stop-color="#2EA6E2"/>
<stop offset="1" stop-color="#1086C2"/>
</linearGradient>
<linearGradient id="paint1_linear_1_38" x1="19" y1="0.5" x2="19" y2="38.5" gradientUnits="userSpaceOnUse">
<stop stop-color="#2EA6E2"/>
<stop offset="1" stop-color="#1086C2"/>
</linearGradient>
<clipPath id="clip0_1_38">
<rect y="0.5" width="38" height="38" rx="19" fill="white"/>
</clipPath>
<clipPath id="clip1_1_38">
<rect width="38" height="38" fill="white" transform="translate(0 0.5)"/>
</clipPath>
<clipPath id="clip2_1_38">
<rect width="38" height="38" fill="white" transform="translate(0 0.5)"/>
</clipPath>
</defs>
</svg>
