<svg width="38" height="39" viewBox="0 0 38 39" fill="none" xmlns="http://www.w3.org/2000/svg">
<g clip-path="url(#clip0_1_28)">
<g clip-path="url(#clip1_1_28)">
<g clip-path="url(#clip2_1_28)">
<mask id="mask0_1_28" style="mask-type:luminance" maskUnits="userSpaceOnUse" x="0" y="0" width="38" height="39">
<path d="M38 0.5H0V38.5H38V0.5Z" fill="white"/>
</mask>
<g mask="url(#mask0_1_28)">
<path d="M32.8182 0.5H5.18182C2.31998 0.5 0 2.81998 0 5.68182V33.3182C0 36.18 2.31998 38.5 5.18182 38.5H32.8182C35.68 38.5 38 36.18 38 33.3182V5.68182C38 2.81998 35.68 0.5 32.8182 0.5Z" fill="#29A71A"/>
<path d="M27.3773 11.1227C25.4004 9.1262 22.7753 7.9018 19.9753 7.67038C17.1753 7.43896 14.3847 8.21574 12.107 9.8606C9.82922 11.5055 8.21422 13.9102 7.55331 16.6409C6.89238 19.3716 7.22905 22.2487 8.50256 24.7531L7.25245 30.8222C7.23947 30.8827 7.23911 30.9451 7.25138 31.0056C7.26362 31.0662 7.28825 31.1236 7.32369 31.1742C7.37562 31.2509 7.44973 31.3102 7.53616 31.3438C7.62258 31.3773 7.71718 31.3836 7.80733 31.362L13.7556 29.9522C16.253 31.1933 19.1097 31.5084 21.8175 30.8411C24.5253 30.1738 26.9084 28.5676 28.5431 26.308C30.1778 24.0484 30.9578 21.2822 30.7442 18.5016C30.5307 15.721 29.3378 13.1063 27.3773 11.1227ZM25.5227 25.9253C24.1549 27.2893 22.3938 28.1896 20.4872 28.4996C18.5806 28.8093 16.6249 28.5133 14.8956 27.6527L14.0665 27.2424L10.4198 28.1062L10.4306 28.0609L11.1863 24.3902L10.7804 23.5893C9.89682 21.854 9.58511 19.8835 9.88996 17.9602C10.1948 16.0369 11.1006 14.2594 12.4774 12.8824C14.2075 11.1528 16.5537 10.1812 19.0001 10.1812C21.4464 10.1812 23.7927 11.1528 25.5227 12.8824C25.5373 12.8993 25.5533 12.9151 25.5702 12.9299C27.2789 14.6639 28.2327 17.0031 28.2238 19.4374C28.2149 21.8718 27.244 24.204 25.5227 25.9253Z" fill="white"/>
<path d="M25.1987 23.2331C24.7518 23.9369 24.0458 24.7984 23.1584 25.0122C21.6038 25.3878 19.218 25.0251 16.2493 22.2571L16.2126 22.2247C13.6022 19.8044 12.9243 17.79 13.0884 16.1922C13.1791 15.2854 13.9347 14.465 14.5717 13.9295C14.6724 13.8436 14.7918 13.7824 14.9203 13.7508C15.0489 13.7193 15.1831 13.7183 15.3121 13.7479C15.4412 13.7774 15.5615 13.8368 15.6635 13.9212C15.7655 14.0056 15.8463 14.1127 15.8995 14.2339L16.8603 16.393C16.9227 16.533 16.9459 16.6874 16.9272 16.8395C16.9086 16.9917 16.8489 17.1359 16.7545 17.2567L16.2687 17.8871C16.1645 18.0173 16.1016 18.1757 16.0881 18.3419C16.0746 18.5081 16.1112 18.6746 16.1931 18.8198C16.4652 19.297 17.1172 19.9987 17.8405 20.6486C18.6523 21.3827 19.5527 22.0542 20.1227 22.283C20.2752 22.3453 20.4429 22.3606 20.6041 22.3267C20.7654 22.2928 20.9128 22.2114 21.0273 22.093L21.5909 21.5252C21.6996 21.418 21.8348 21.3415 21.9827 21.3036C22.1307 21.2656 22.286 21.2676 22.4329 21.3093L24.7151 21.957C24.8409 21.9956 24.9564 22.0625 25.0524 22.1526C25.1484 22.2426 25.2227 22.3534 25.2693 22.4766C25.316 22.5997 25.334 22.7318 25.3218 22.8629C25.3095 22.994 25.2673 23.1207 25.1987 23.2331Z" fill="white"/>
</g>
</g>
</g>
</g>
<defs>
<clipPath id="clip0_1_28">
<rect y="0.5" width="38" height="38" rx="19" fill="white"/>
</clipPath>
<clipPath id="clip1_1_28">
<rect width="38" height="38" fill="white" transform="translate(0 0.5)"/>
</clipPath>
<clipPath id="clip2_1_28">
<rect width="38" height="38" fill="white" transform="translate(0 0.5)"/>
</clipPath>
</defs>
</svg>
